<?xml version="1.0" standalone="no"?>
<!DOCTYPE svg PUBLIC "-//W3C//DTD SVG 20010904//EN"
 "http://www.w3.org/TR/2001/REC-SVG-20010904/DTD/svg10.dtd">
<svg version="1.0" xmlns="http://www.w3.org/2000/svg"
 width="227.000000pt" height="227.000000pt" viewBox="0 0 227.000000 227.000000"
 preserveAspectRatio="xMidYMid meet">
<metadata>
Created by potrace 1.11, written by Peter Selinger 2001-2013
</metadata>
<g transform="translate(0.000000,227.000000) scale(0.100000,-0.100000)"
fill="#000000" stroke="none">
<path d="M1348 1593 c-48 -52 -48 -51 -48 -448 0 -366 1 -378 21 -415 37 -65
98 -77 184 -36 28 14 165 96 305 183 275 171 300 193 300 266 0 77 -21 97
-250 239 -374 233 -384 238 -443 238 -34 0 -49 -6 -69 -27z"/>
<path d="M360 1540 c-29 -29 -24 -77 12 -103 23 -17 31 -18 57 -8 16 7 35 26
42 42 10 26 9 34 -8 57 -26 36 -74 41 -103 12z"/>
<path d="M527 1532 c-18 -19 -22 -59 -9 -78 20 -31 54 -34 406 -34 l356 0 0
65 0 65 -368 0 c-345 0 -370 -1 -385 -18z"/>
<path d="M696 1358 c-23 -33 -19 -64 10 -87 26 -20 39 -21 300 -21 l274 0 0
65 0 65 -284 0 c-283 0 -285 0 -300 -22z"/>
<path d="M576 1188 c-22 -31 -20 -64 4 -88 19 -19 33 -20 360 -20 l340 0 0 65
0 65 -344 0 -345 0 -15 -22z"/>
<path d="M197 1022 c-21 -23 -22 -66 -1 -86 20 -20 172 -23 196 -3 27 21 30
52 7 80 -19 25 -26 27 -103 27 -68 0 -86 -3 -99 -18z"/>
<path d="M471 1014 c-12 -15 -21 -32 -21 -39 0 -7 9 -24 21 -39 l20 -26 395 0
394 0 0 65 0 65 -394 0 -395 0 -20 -26z"/>
<path d="M423 860 c-46 -18 -56 -74 -20 -108 32 -30 71 -28 96 4 27 35 26 59
-4 89 -26 27 -37 29 -72 15z"/>
<path d="M580 850 c-11 -11 -20 -31 -20 -45 0 -14 9 -34 20 -45 19 -19 33 -20
360 -20 l340 0 0 65 0 65 -340 0 c-327 0 -341 -1 -360 -20z"/>
</g>
</svg>
